<svg width="636" height="189" viewBox="0 0 636 189" fill="none" xmlns="http://www.w3.org/2000/svg">
<path d="M543.192 182.918C534.62 182.918 527.193 181.42 520.911 178.426C514.688 175.373 510.108 170.852 507.172 164.864C504.237 158.875 503.503 151.448 504.971 142.582C506.262 135.067 508.699 128.785 512.28 123.736C515.921 118.628 520.353 114.518 525.579 111.406C530.804 108.295 536.587 105.917 542.928 104.273C549.328 102.629 555.933 101.513 562.743 100.926C570.611 100.104 577.011 99.3116 581.942 98.5483C586.933 97.7851 590.661 96.6989 593.127 95.2898C595.593 93.822 597.09 91.6497 597.618 88.7728V88.2444C598.499 82.7254 597.472 78.4394 594.536 75.3864C591.659 72.2747 587.05 70.7188 580.709 70.7188C574.016 70.7188 568.321 72.1866 563.624 75.1222C558.986 78.0578 555.669 81.786 553.672 86.3069L519.502 83.4887C522.555 75.269 527.164 68.1648 533.329 62.1762C539.552 56.1288 547.038 51.4906 555.786 48.2614C564.534 44.9735 574.339 43.3296 585.201 43.3296C592.716 43.3296 599.732 44.2103 606.249 45.9716C612.825 47.733 618.491 50.4631 623.246 54.162C628.061 57.8608 631.525 62.6165 633.638 68.429C635.811 74.1828 636.251 81.0815 634.959 89.125L619.724 180.364H584.144L587.314 161.605H586.258C583.381 165.832 579.858 169.561 575.689 172.79C571.521 175.96 566.736 178.456 561.334 180.276C555.933 182.037 549.886 182.918 543.192 182.918ZM558.252 157.026C563.712 157.026 568.732 155.939 573.312 153.767C577.95 151.536 581.766 148.542 584.761 144.784C587.814 141.027 589.751 136.77 590.573 132.014L592.863 117.659C591.688 118.422 589.986 119.098 587.755 119.685C585.582 120.272 583.205 120.83 580.621 121.358C578.097 121.828 575.543 122.268 572.959 122.679C570.376 123.031 568.057 123.384 566.002 123.736C561.481 124.382 557.43 125.409 553.849 126.818C550.267 128.227 547.361 130.135 545.13 132.543C542.899 134.891 541.519 137.827 540.991 141.349C540.169 146.457 541.372 150.362 544.601 153.063C547.889 155.705 552.439 157.026 558.252 157.026Z" fill="#333333"/>
<path d="M342.645 180.364L372.588 0H410.721L386.062 148.923H463.386L458.102 180.364H342.645Z" fill="#333333"/>
<path d="M232.454 183.006C218.598 183.006 207.12 180.188 198.02 174.551C188.919 168.856 182.52 160.813 178.821 150.421C175.181 139.97 174.564 127.611 176.971 113.344C179.32 99.429 184.046 87.2169 191.15 76.7074C198.313 66.198 207.296 58.0076 218.099 52.1364C228.902 46.2652 240.938 43.3296 254.207 43.3296C263.132 43.3296 271.204 44.768 278.426 47.6449C285.706 50.4631 291.754 54.7491 296.568 60.5029C301.382 66.198 304.67 73.3315 306.432 81.9035C308.252 90.4754 308.222 100.515 306.344 112.023L304.67 122.327H190.534L194.145 99.0767H273.054C273.935 93.6752 273.582 88.8902 271.997 84.7216C270.412 80.5531 267.77 77.2945 264.071 74.9461C260.372 72.5389 255.822 71.3353 250.42 71.3353C244.901 71.3353 239.735 72.6856 234.92 75.3864C230.106 78.0872 226.055 81.6392 222.767 86.0426C219.538 90.3873 217.453 95.1137 216.514 100.222L212.375 123.296C211.201 130.4 211.436 136.3 213.079 140.997C214.782 145.694 217.718 149.217 221.886 151.565C226.055 153.855 231.339 155 237.739 155C241.907 155 245.811 154.413 249.452 153.239C253.15 152.064 256.438 150.332 259.315 148.043C262.192 145.694 264.541 142.788 266.361 139.324L300.619 141.614C297.449 149.951 292.634 157.231 286.176 163.455C279.718 169.619 271.938 174.434 262.838 177.898C253.796 181.303 243.668 183.006 232.454 183.006Z" fill="#333333"/>
<path d="M66.1465 2.36365C69.2604 2.36365 71.6027 5.20193 71.0117 8.25916L65.6641 35.9105C65.6509 35.9787 65.633 36.0454 65.6133 36.1107L65.5391 36.557L43.3555 169.34C41.6791 179.374 32.9964 186.727 22.8232 186.727C9.96467 186.727 0.181209 175.185 2.28711 162.5L22.7676 39.1351C26.2898 17.9193 44.6403 2.36378 66.1465 2.36365ZM64.2656 37.4535C64.0825 37.5083 63.8897 37.5394 63.6904 37.5394C63.8898 37.5394 64.0828 37.5088 64.2656 37.4535Z" fill="#333333" stroke="#333333" stroke-width="4"/>
<path d="M86.4229 115.038C96.5027 113.341 106.379 118.996 110.018 128.548L121.065 157.555C126.45 171.693 116.009 186.843 100.881 186.843C91.8362 186.843 83.749 181.207 80.6172 172.722L69.8701 143.603C65.2177 130.998 73.1733 117.269 86.4229 115.038Z" fill="#333333" stroke="#333333" stroke-width="4"/>
<path d="M82.6123 2.36365C96.4513 2.36365 108.022 4.80725 117.208 9.82751H117.209C126.453 14.8476 133.007 22.0275 136.773 31.3412L137.122 32.2113C140.639 41.248 141.372 51.7393 139.453 63.601L139.452 63.6097C137.409 75.8702 132.976 86.4594 126.119 95.3217C120.834 102.212 113.197 108.004 105.087 112.447C100.125 115.164 94.6808 116.649 89.2783 117.559L61.1934 122.287C59.2092 122.622 57.2006 122.789 55.1885 122.789H32.8164C22.0722 122.789 13.9188 113.111 15.7441 102.523C17.1768 94.2134 24.3844 88.142 32.8164 88.142H61.2998C68.407 88.142 74.373 87.1669 79.25 85.2826C84.1066 83.4062 87.8671 80.6254 90.6123 76.9652L90.6172 76.9574L90.623 76.9496C93.4384 73.2679 95.3281 68.6336 96.2256 62.9681L96.2275 62.9554C97.1875 57.1392 96.8096 52.5009 95.2998 48.9086L95.2959 48.8988C93.8045 45.2991 91.1077 42.5322 87.041 40.6058L87.0215 40.5961C82.9292 38.6038 77.3907 37.5394 70.2832 37.5394H63.4766C52.4235 37.5394 44.1105 27.4647 46.209 16.6127C47.8088 8.33997 55.0506 2.36371 63.4766 2.36365H82.6123Z" fill="#333333" stroke="#333333" stroke-width="4"/>
</svg>
